<svg width="24" height="24" viewBox="0 0 24 24" fill="none" xmlns="http://www.w3.org/2000/svg">
  <path d="M12 3C7.0275 3 3 7.0275 3 12C3 15.9825 5.7075 19.3112 9.3562 20.4375C9.8562 20.5237 10.0388 20.2087 10.0388 19.9387C10.0388 19.6987 10.0275 19.0387 10.0275 18.2687C7.5 18.7387 6.915 17.7037 6.7725 17.1637C6.6937 16.8937 6.2625 16.0987 5.85 15.8587C5.5125 15.6737 5.0125 15.2037 5.8387 15.1925C6.6 15.1812 7.1625 15.8925 7.35 16.1737C8.1 17.4937 9.435 17.2012 10.0725 16.9312C10.1587 16.3312 10.4175 15.9262 10.7 15.7012C8.6025 15.4762 6.405 14.7075 6.405 11.2312C6.405 10.2375 6.7837 9.41625 7.3687 8.77875C7.2712 8.52 6.9337 7.5825 7.4625 6.44125C7.4625 6.44125 8.1562 6.17125 10.0387 7.39375C10.9612 7.1625 11.9437 7.0475 12.9262 7.0475C13.9087 7.0475 14.8912 7.1625 15.8137 7.39375C17.6962 6.16 18.39 6.44125 18.39 6.44125C18.9187 7.5825 18.5812 8.52 18.4837 8.77875C19.0687 9.41625 19.4475 10.2262 19.4475 11.2312C19.4475 14.7187 17.2387 15.4762 15.1412 15.7012C15.5025 15.9825 15.8137 16.5262 15.8137 17.3662C15.8137 18.6075 15.8025 19.6087 15.8025 19.9387C15.8025 20.2087 15.985 20.5349 16.485 20.4375C18.3099 19.8674 19.8915 18.7508 21.0319 17.2366C22.1723 15.7225 22.8127 13.8887 22.875 12C22.875 7.0275 18.8475 3 13.875 3H12Z" fill="currentColor"/>
</svg> 