<svg width="24" height="24" viewBox="0 0 24 24" fill="none" xmlns="http://www.w3.org/2000/svg">
  <path d="M9 12C11.2091 12 13 13.7909 13 16C13 18.2091 11.2091 20 9 20C6.79086 20 5 18.2091 5 16C5 13.7909 6.79086 12 9 12Z" stroke="currentColor" stroke-width="2"/>
  <path d="M15 8C16.1046 8 17 8.89543 17 10C17 11.1046 16.1046 12 15 12C13.8954 12 13 11.1046 13 10C13 8.89543 13.8954 8 15 8Z" stroke="currentColor" stroke-width="2"/>
  <path d="M19 4L20 5M15 3L17 5M19 8L20 7" stroke="currentColor" stroke-width="2" stroke-linecap="round"/>
</svg> 